<svg width="78" height="107" viewBox="0 0 78 107" fill="none"
	xmlns="http://www.w3.org/2000/svg">
	<path d="M38.5161 25.6719C38.5161 27.9532 38.0786 30.0938 37.2036 32.0938C36.3599 34.0938 35.188 35.8438 33.688 37.3438C32.188 38.8438 30.4224 40.0313 28.3911 40.9063C26.3911 41.7501 24.2505 42.1719 21.9692 42.1719H6.73486V68.0001H0.687988V0.781311H21.9692C24.2505 0.781311 26.3911 1.21881 28.3911 2.09381C30.4224 2.93756 32.188 4.10944 33.688 5.60944C35.188 7.10944 36.3599 8.87506 37.2036 10.9063C38.0786 12.9063 38.5161 15.0469 38.5161 17.3282V25.6719ZM32.4692 17.3282C32.4692 15.8282 32.188 14.4376 31.6255 13.1563C31.063 11.8438 30.2817 10.7032 29.2817 9.73444C28.313 8.73444 27.1724 7.95319 25.8599 7.39069C24.5786 6.82819 23.188 6.54694 21.688 6.54694H6.73486V36.4063H21.688C23.188 36.4063 24.5786 36.1251 25.8599 35.5626C27.1724 35.0001 28.313 34.2344 29.2817 33.2657C30.2817 32.2969 31.063 31.1719 31.6255 29.8907C32.188 28.5782 32.4692 27.1719 32.4692 25.6719V17.3282ZM77.9417 90.4376C77.9417 92.7188 77.473 94.8594 76.5355 96.8594C75.6292 98.8594 74.3949 100.609 72.8324 102.109C71.3011 103.609 69.5042 104.797 67.4417 105.672C65.4105 106.516 63.2542 106.938 60.973 106.938H56.1449C53.8636 106.938 51.6917 106.516 49.6292 105.672C47.598 104.797 45.8011 103.609 44.2386 102.109C42.7074 100.609 41.473 98.8594 40.5355 96.8594C39.6292 94.8594 39.1761 92.7188 39.1761 90.4376V87.7657L45.223 86.7813V90.4376C45.223 91.9376 45.5199 93.3438 46.1136 94.6563C46.7386 95.9376 47.5667 97.0782 48.598 98.0782C49.6292 99.0469 50.8167 99.8126 52.1605 100.375C53.5355 100.938 54.973 101.219 56.473 101.219H60.6917C62.1917 101.219 63.6136 100.938 64.9574 100.375C66.3011 99.8126 67.4886 99.0469 68.5199 98.0782C69.5511 97.0782 70.3636 95.9376 70.9574 94.6563C71.5824 93.3438 71.8949 91.9376 71.8949 90.4376V88.4219C71.8949 86.1094 71.4417 84.1876 70.5355 82.6563C69.6292 81.1251 68.4261 79.8282 66.9261 78.7657C65.4261 77.6719 63.723 76.7501 61.8167 76.0001C59.9417 75.2501 58.0042 74.5001 56.0042 73.7501C54.0042 73.0001 52.0511 72.1719 50.1449 71.2657C48.2699 70.3594 46.5824 69.2344 45.0824 67.8907C43.5824 66.5157 42.3792 64.8438 41.473 62.8751C40.5667 60.9063 40.1136 58.4844 40.1136 55.6094V54.3438C40.1136 52.0626 40.5355 49.9219 41.3792 47.9219C42.2542 45.9219 43.4417 44.1719 44.9417 42.6719C46.4417 41.1719 48.1917 40.0001 50.1917 39.1563C52.223 38.2813 54.3792 37.8438 56.6605 37.8438H60.973C63.2542 37.8438 65.3949 38.2813 67.3949 39.1563C69.3949 40.0001 71.1449 41.1719 72.6449 42.6719C74.1449 44.1719 75.3167 45.9219 76.1605 47.9219C77.0355 49.9219 77.473 52.0626 77.473 54.3438V56.0782L71.4261 57.0626V54.3438C71.4261 52.8438 71.1449 51.4532 70.5824 50.1719C70.0199 48.8594 69.2542 47.7188 68.2855 46.7501C67.3167 45.7813 66.1761 45.0157 64.8636 44.4532C63.5824 43.8907 62.1917 43.6094 60.6917 43.6094H56.9417C55.4417 43.6094 54.0355 43.8907 52.723 44.4532C51.4417 45.0157 50.3011 45.7813 49.3011 46.7501C48.3324 47.7188 47.5667 48.8594 47.0042 50.1719C46.4417 51.4532 46.1605 52.8438 46.1605 54.3438V55.6094C46.1605 57.7657 46.6136 59.5782 47.5199 61.0469C48.4261 62.5157 49.6292 63.7813 51.1292 64.8438C52.6292 65.8751 54.3167 66.7813 56.1917 67.5626C58.098 68.3126 60.0511 69.0938 62.0511 69.9063C64.0511 70.6876 65.9886 71.5626 67.8636 72.5313C69.7699 73.4688 71.473 74.6407 72.973 76.0469C74.473 77.4219 75.6761 79.1094 76.5824 81.1094C77.4886 83.1094 77.9417 85.5469 77.9417 88.4219V90.4376Z" fill="white"/>
	<path d="M37.2036 32.0938L32.6228 30.0897L32.6096 30.1199L32.5968 30.1503L37.2036 32.0938ZM28.3911 40.9063L30.3346 45.5131L30.352 45.5058L30.3692 45.4984L28.3911 40.9063ZM6.73486 42.1719V37.1719H1.73486V42.1719H6.73486ZM6.73486 68.0001V73.0001H11.7349V68.0001H6.73486ZM0.687988 68.0001H-4.31201V73.0001H0.687988V68.0001ZM0.687988 0.781311V-4.21869H-4.31201V0.781311H0.687988ZM28.3911 2.09381L26.387 6.6746L26.4299 6.69335L26.4731 6.71129L28.3911 2.09381ZM37.2036 10.9063L32.5861 12.8243L32.6041 12.8675L32.6228 12.9104L37.2036 10.9063ZM31.6255 13.1563L27.0298 15.1259L27.0384 15.1461L27.0473 15.1663L31.6255 13.1563ZM29.2817 9.73444L25.6905 13.2134L25.7458 13.2704L25.8028 13.3256L29.2817 9.73444ZM25.8599 7.39069L23.8499 11.9689L23.8701 11.9777L23.8903 11.9864L25.8599 7.39069ZM6.73486 6.54694V1.54694H1.73486V6.54694H6.73486ZM6.73486 36.4063H1.73486V41.4063H6.73486V36.4063ZM25.8599 35.5626L23.8903 30.9668L23.8701 30.9755L23.8499 30.9843L25.8599 35.5626ZM29.2817 33.2657L25.8028 29.6745L25.7743 29.7021L25.7462 29.7302L29.2817 33.2657ZM31.6255 29.8907L36.2037 31.9006L36.2125 31.8805L36.2212 31.8603L31.6255 29.8907ZM33.5161 25.6719C33.5161 27.2951 33.2089 28.7501 32.6228 30.0897L41.7844 34.0979C42.9483 31.4375 43.5161 28.6113 43.5161 25.6719H33.5161ZM32.5968 30.1503C31.998 31.5696 31.1852 32.7756 30.1525 33.8083L37.2235 40.8793C39.1908 38.9121 40.7217 36.618 41.8104 34.0373L32.5968 30.1503ZM30.1525 33.8083C29.119 34.8417 27.8881 35.6788 26.413 36.3142L30.3692 45.4984C32.9566 44.3838 35.257 42.8459 37.2235 40.8793L30.1525 33.8083ZM26.4476 36.2995C25.0938 36.8706 23.6175 37.1719 21.9692 37.1719V47.1719C24.8835 47.1719 27.6884 46.6295 30.3346 45.5131L26.4476 36.2995ZM21.9692 37.1719H6.73486V47.1719H21.9692V37.1719ZM1.73486 42.1719V68.0001H11.7349V42.1719H1.73486ZM6.73486 63.0001H0.687988V73.0001H6.73486V63.0001ZM5.68799 68.0001V0.781311H-4.31201V68.0001H5.68799ZM0.687988 5.78131H21.9692V-4.21869H0.687988V5.78131ZM21.9692 5.78131C23.5924 5.78131 25.0474 6.08851 26.387 6.6746L30.3952 -2.48698C27.7348 -3.65088 24.9086 -4.21869 21.9692 -4.21869V5.78131ZM26.4731 6.71129C27.9222 7.31326 29.1327 8.12517 30.1525 9.14497L37.2235 2.0739C35.2433 0.0936983 32.9225 -1.43813 30.3091 -2.52367L26.4731 6.71129ZM30.1525 9.14497C31.1723 10.1648 31.9842 11.3752 32.5861 12.8243L41.8211 8.98828C40.7356 6.37495 39.2037 4.05411 37.2235 2.0739L30.1525 9.14497ZM32.6228 12.9104C33.2089 14.25 33.5161 15.705 33.5161 17.3282H43.5161C43.5161 14.3888 42.9483 11.5626 41.7844 8.90222L32.6228 12.9104ZM33.5161 17.3282V25.6719H43.5161V17.3282H33.5161ZM37.4692 17.3282C37.4692 15.1868 37.064 13.1059 36.2037 11.1464L27.0473 15.1663C27.312 15.7693 27.4692 16.4696 27.4692 17.3282H37.4692ZM36.2212 11.1867C35.4045 9.28098 34.2491 7.5851 32.7607 6.14323L25.8028 13.3256C26.3144 13.8213 26.7215 14.4066 27.0298 15.1259L36.2212 11.1867ZM32.8729 6.25546C31.4311 4.76708 29.7352 3.61171 27.8295 2.79496L23.8903 11.9864C24.6095 12.2947 25.1949 12.7018 25.6905 13.2134L32.8729 6.25546ZM27.8698 2.81247C25.9103 1.9522 23.8294 1.54694 21.688 1.54694V11.5469C22.5466 11.5469 23.2469 11.7042 23.8499 11.9689L27.8698 2.81247ZM21.688 1.54694H6.73486V11.5469H21.688V1.54694ZM1.73486 6.54694V36.4063H11.7349V6.54694H1.73486ZM6.73486 41.4063H21.688V31.4063H6.73486V41.4063ZM21.688 41.4063C23.8294 41.4063 25.9103 41.0011 27.8698 40.1408L23.8499 30.9843C23.2469 31.2491 22.5466 31.4063 21.688 31.4063V41.4063ZM27.8295 40.1583C29.7015 39.356 31.3798 38.2387 32.8173 36.8012L25.7462 29.7302C25.2462 30.2302 24.6432 30.6441 23.8903 30.9668L27.8295 40.1583ZM32.7607 36.8569C34.2285 35.4349 35.3821 33.7722 36.2037 31.9006L27.0473 27.8807C26.7439 28.5717 26.3349 29.1589 25.8028 29.6745L32.7607 36.8569ZM36.2212 31.8603C37.0638 29.8942 37.4692 27.8143 37.4692 25.6719H27.4692C27.4692 26.5296 27.3122 27.2622 27.0298 27.9211L36.2212 31.8603ZM37.4692 25.6719V17.3282H27.4692V25.6719H37.4692ZM76.5355 96.8594L72.0082 94.7373L71.9945 94.7664L71.9812 94.7958L76.5355 96.8594ZM72.8324 102.109L69.3697 98.5025L69.3515 98.52L69.3335 98.5376L72.8324 102.109ZM67.4417 105.672L69.3598 110.289L69.3772 110.282L69.3945 110.275L67.4417 105.672ZM49.6292 105.672L47.6511 110.264L47.6934 110.282L47.7361 110.3L49.6292 105.672ZM44.2386 102.109L40.7397 105.681L40.7577 105.699L40.776 105.716L44.2386 102.109ZM40.5355 96.8594L35.9812 98.9231L35.9945 98.9524L36.0082 98.9816L40.5355 96.8594ZM39.1761 87.7657L38.3727 82.8306L34.1761 83.5138V87.7657H39.1761ZM45.223 86.7813H50.223V80.9015L44.4196 81.8463L45.223 86.7813ZM46.1136 94.6563L41.5581 96.7172L41.588 96.7832L41.6198 96.8484L46.1136 94.6563ZM48.598 98.0782L45.1173 101.668L45.1457 101.695L45.1746 101.722L48.598 98.0782ZM52.1605 100.375L50.2298 104.987L50.2485 104.995L50.2673 105.003L52.1605 100.375ZM68.5199 98.0782L71.9432 101.722L71.9721 101.695L72.0006 101.668L68.5199 98.0782ZM70.9574 94.6563L66.4431 92.5066L66.4318 92.5303L66.4208 92.554L70.9574 94.6563ZM66.9261 78.7657L63.9803 82.8057L64.008 82.826L64.036 82.8458L66.9261 78.7657ZM61.8167 76.0001L59.9598 80.6424L59.9729 80.6477L59.9861 80.6529L61.8167 76.0001ZM50.1449 71.2657L47.969 75.7674L47.9835 75.7744L47.9981 75.7814L50.1449 71.2657ZM45.0824 67.8907L41.7037 71.5765L41.7248 71.5958L41.7461 71.6149L45.0824 67.8907ZM41.3792 47.9219L36.7985 45.9178L36.7852 45.9481L36.7724 45.9784L41.3792 47.9219ZM50.1917 39.1563L52.1352 43.7631L52.1526 43.7558L52.1699 43.7484L50.1917 39.1563ZM67.3949 39.1563L65.3908 43.7371L65.421 43.7503L65.4514 43.7631L67.3949 39.1563ZM76.1605 47.9219L71.5537 49.8654L71.5665 49.8958L71.5797 49.926L76.1605 47.9219ZM77.473 56.0782L78.2764 61.0132L82.473 60.3301V56.0782H77.473ZM71.4261 57.0626H66.4261V62.9423L72.2295 61.9976L71.4261 57.0626ZM70.5824 50.1719L65.9866 52.1415L65.9953 52.1617L66.0041 52.1819L70.5824 50.1719ZM64.8636 44.4532L62.8537 49.0314L62.8738 49.0402L62.894 49.0489L64.8636 44.4532ZM52.723 44.4532L50.7534 39.8575L50.7332 39.8661L50.713 39.875L52.723 44.4532ZM49.3011 46.7501L45.8221 43.1589L45.7936 43.1865L45.7656 43.2145L49.3011 46.7501ZM47.0042 50.1719L51.5825 52.1819L51.5913 52.1617L51.6 52.1415L47.0042 50.1719ZM51.1292 64.8438L48.2392 68.9239L48.2677 68.9442L48.2966 68.964L51.1292 64.8438ZM56.1917 67.5626L54.2687 72.1779L54.3147 72.1971L54.3611 72.2154L56.1917 67.5626ZM62.0511 69.9063L60.1692 74.5386L60.2005 74.5513L60.2319 74.5636L62.0511 69.9063ZM67.8636 72.5313L65.5685 76.9734L65.6125 76.9962L65.657 77.0181L67.8636 72.5313ZM72.973 76.0469L69.5533 79.6946L69.5737 79.7138L69.5944 79.7327L72.973 76.0469ZM72.9417 90.4376C72.9417 92.01 72.624 93.4235 72.0082 94.7373L81.0628 98.9816C82.3219 96.2954 82.9417 93.4276 82.9417 90.4376H72.9417ZM71.9812 94.7958C71.3337 96.2248 70.4671 97.449 69.3697 98.5025L76.295 105.716C78.3226 103.77 79.9248 101.494 81.0898 98.9231L71.9812 94.7958ZM69.3335 98.5376C68.2687 99.5807 67.0026 100.427 65.489 101.069L69.3945 110.275C72.0059 109.167 74.3336 107.638 76.3313 105.681L69.3335 98.5376ZM65.5237 101.054C64.123 101.636 62.6209 101.938 60.973 101.938V111.938C63.8876 111.938 66.698 111.395 69.3598 110.289L65.5237 101.054ZM60.973 101.938H56.1449V111.938H60.973V101.938ZM56.1449 101.938C54.4971 101.938 52.9696 101.636 51.5224 101.044L47.7361 110.3C50.4139 111.395 53.2301 111.938 56.1449 111.938V101.938ZM51.6074 101.08C50.1141 100.437 48.8227 99.5791 47.7013 98.5025L40.776 105.716C42.7795 107.64 45.0819 109.157 47.6511 110.264L51.6074 101.08ZM47.7375 98.5376C46.6459 97.4683 45.7547 96.2133 45.0628 94.7373L36.0082 98.9816C37.1913 101.506 38.7688 103.751 40.7397 105.681L47.7375 98.5376ZM45.0898 94.7958C44.4888 93.4695 44.1761 92.0354 44.1761 90.4376H34.1761C34.1761 93.4022 34.7697 96.2494 35.9812 98.9231L45.0898 94.7958ZM44.1761 90.4376V87.7657H34.1761V90.4376H44.1761ZM39.9795 92.7007L46.0264 91.7163L44.4196 81.8463L38.3727 82.8306L39.9795 92.7007ZM40.223 86.7813V90.4376H50.223V86.7813H40.223ZM40.223 90.4376C40.223 92.6183 40.6593 94.7303 41.5581 96.7172L50.6692 92.5955C50.3805 91.9573 50.223 91.2569 50.223 90.4376H40.223ZM41.6198 96.8484C42.5009 98.6547 43.6731 100.267 45.1173 101.668L52.0787 94.4887C51.4604 93.8891 50.9763 93.2204 50.6075 92.4642L41.6198 96.8484ZM45.1746 101.722C46.6545 103.113 48.3512 104.201 50.2298 104.987L54.0912 95.7629C53.2823 95.4242 52.604 94.9813 52.0214 94.4339L45.1746 101.722ZM50.2673 105.003C52.2492 105.814 54.3302 106.219 56.473 106.219V96.2188C55.6158 96.2188 54.8218 96.0616 54.0537 95.7473L50.2673 105.003ZM56.473 106.219H60.6917V96.2188H56.473V106.219ZM60.6917 106.219C62.8345 106.219 64.9145 105.813 66.8881 104.987L63.0267 95.7629C62.3127 96.0617 61.549 96.2188 60.6917 96.2188V106.219ZM66.8881 104.987C68.7667 104.201 70.4634 103.113 71.9432 101.722L65.0965 94.4339C64.5138 94.9813 63.8356 95.4242 63.0267 95.7629L66.8881 104.987ZM72.0006 101.668C73.4642 100.248 74.6379 98.6058 75.4939 96.7586L66.4208 92.554C66.0893 93.2693 65.638 93.908 65.0391 94.4887L72.0006 101.668ZM75.4717 96.806C76.4268 94.8003 76.8949 92.6569 76.8949 90.4376H66.8949C66.8949 91.2182 66.738 91.8873 66.4431 92.5066L75.4717 96.806ZM76.8949 90.4376V88.4219H66.8949V90.4376H76.8949ZM76.8949 88.4219C76.8949 85.4759 76.3183 82.6103 74.8384 80.1097L66.2326 85.2029C66.5652 85.7649 66.8949 86.743 66.8949 88.4219H76.8949ZM74.8384 80.1097C73.5622 77.9535 71.8702 76.1405 69.8162 74.6856L64.036 82.8458C64.982 83.5159 65.6962 84.2966 66.2326 85.2029L74.8384 80.1097ZM69.872 74.7256C67.9944 73.3566 65.9095 72.2373 63.6474 71.3472L59.9861 80.6529C61.5365 81.2629 62.8578 81.9873 63.9803 82.8057L69.872 74.7256ZM63.6737 71.3577C61.7632 70.5935 59.7918 69.8304 57.7599 69.0684L54.2486 78.4317C56.2166 79.1697 58.1203 79.9066 59.9598 80.6424L63.6737 71.3577ZM57.7599 69.0684C55.891 68.3676 54.0684 67.5947 52.2917 66.75L47.9981 75.7814C50.0338 76.7492 52.1175 77.6325 54.2486 78.4317L57.7599 69.0684ZM52.3207 66.7639C50.8525 66.0543 49.5583 65.1875 48.4186 64.1665L41.7461 71.6149C43.6064 73.2814 45.6872 74.6645 47.969 75.7674L52.3207 66.7639ZM48.461 64.2049C47.4822 63.3077 46.6616 62.1892 46.0149 60.7843L36.9311 64.9658C38.0969 67.4984 39.6825 69.7237 41.7037 71.5765L48.461 64.2049ZM46.0149 60.7843C45.492 59.6485 45.1136 57.9871 45.1136 55.6094H35.1136C35.1136 58.9817 35.6415 62.1642 36.9311 64.9658L46.0149 60.7843ZM45.1136 55.6094V54.3438H35.1136V55.6094H45.1136ZM45.1136 54.3438C45.1136 52.6956 45.4149 51.2193 45.9861 49.8654L36.7724 45.9784C35.6561 48.6246 35.1136 51.4296 35.1136 54.3438H45.1136ZM45.96 49.926C46.5925 48.4803 47.431 47.2537 48.4773 46.2075L41.4062 39.1364C39.4525 41.0901 37.9159 43.3636 36.7985 45.9178L45.96 49.926ZM48.4773 46.2075C49.51 45.1747 50.7159 44.3619 52.1352 43.7631L48.2482 34.5495C45.6675 35.6382 43.3735 37.1691 41.4062 39.1364L48.4773 46.2075ZM52.1699 43.7484C53.5565 43.151 55.0376 42.8438 56.6605 42.8438V32.8438C53.7209 32.8438 50.8894 33.4116 48.2136 34.5642L52.1699 43.7484ZM56.6605 42.8438H60.973V32.8438H56.6605V42.8438ZM60.973 42.8438C62.5961 42.8438 64.0511 43.151 65.3908 43.7371L69.399 34.5755C66.7386 33.4116 63.9123 32.8438 60.973 32.8438V42.8438ZM65.4514 43.7631C66.8707 44.3619 68.0766 45.1747 69.1093 46.2075L76.1804 39.1364C74.2131 37.1691 71.9191 35.6382 69.3384 34.5495L65.4514 43.7631ZM69.1093 46.2075C70.1421 47.2402 70.9549 48.4461 71.5537 49.8654L80.7673 45.9784C79.6786 43.3977 78.1477 41.1037 76.1804 39.1364L69.1093 46.2075ZM71.5797 49.926C72.1658 51.2657 72.473 52.7207 72.473 54.3438H82.473C82.473 51.4045 81.9052 48.5782 80.7413 45.9178L71.5797 49.926ZM72.473 54.3438V56.0782H82.473V54.3438H72.473ZM76.6696 51.1431L70.6227 52.1275L72.2295 61.9976L78.2764 61.0132L76.6696 51.1431ZM76.4261 57.0626V54.3438H66.4261V57.0626H76.4261ZM76.4261 54.3438C76.4261 52.2024 76.0209 50.1215 75.1606 48.162L66.0041 52.1819C66.2689 52.7849 66.4261 53.4852 66.4261 54.3438H76.4261ZM75.1781 48.2023C74.3758 46.3303 73.2585 44.652 71.821 43.2145L64.75 50.2856C65.25 50.7856 65.6639 51.3886 65.9866 52.1415L75.1781 48.2023ZM71.821 43.2145C70.3835 41.777 68.7052 40.6598 66.8332 39.8575L62.894 49.0489C63.647 49.3716 64.2499 49.7856 64.75 50.2856L71.821 43.2145ZM66.8736 39.875C64.9141 39.0147 62.8332 38.6094 60.6917 38.6094V48.6094C61.5503 48.6094 62.2507 48.7667 62.8537 49.0314L66.8736 39.875ZM60.6917 38.6094H56.9417V48.6094H60.6917V38.6094ZM56.9417 38.6094C54.7994 38.6094 52.7195 39.0149 50.7534 39.8575L54.6926 49.0489C55.3515 48.7665 56.0841 48.6094 56.9417 48.6094V38.6094ZM50.713 39.875C48.8901 40.6753 47.2514 41.7742 45.8221 43.1589L52.7801 50.3413C53.3508 49.7884 53.9934 49.3561 54.7329 49.0314L50.713 39.875ZM45.7656 43.2145C44.3281 44.652 43.2108 46.3303 42.4085 48.2023L51.6 52.1415C51.9227 51.3886 52.3366 50.7856 52.8366 50.2856L45.7656 43.2145ZM42.426 48.162C41.5657 50.1215 41.1605 52.2024 41.1605 54.3438H51.1605C51.1605 53.4852 51.3177 52.7849 51.5825 52.1819L42.426 48.162ZM41.1605 54.3438V55.6094H51.1605V54.3438H41.1605ZM41.1605 55.6094C41.1605 58.4631 41.7634 61.2394 43.2647 63.6725L51.775 58.4214C51.4638 57.9169 51.1605 57.0683 51.1605 55.6094H41.1605ZM43.2647 63.6725C44.5462 65.7494 46.2272 67.4988 48.2392 68.9239L54.0193 60.7637C53.0313 60.0638 52.306 59.282 51.775 58.4214L43.2647 63.6725ZM48.2966 68.964C50.1125 70.2124 52.1104 71.2787 54.2687 72.1779L58.1148 62.9472C56.5231 62.284 55.146 61.5377 53.9619 60.7236L48.2966 68.964ZM54.3611 72.2154C56.2494 72.9583 58.1854 73.7327 60.1692 74.5386L63.933 65.274C61.9169 64.4549 59.9466 63.6668 58.0224 62.9097L54.3611 72.2154ZM60.2319 74.5636C62.0724 75.2826 63.8509 76.086 65.5685 76.9734L70.1587 68.0892C68.1263 67.0391 66.0298 66.0926 63.8704 65.249L60.2319 74.5636ZM65.657 77.0181C67.1345 77.7447 68.4258 78.6376 69.5533 79.6946L76.3927 72.3993C74.5202 70.6438 72.4052 69.1929 70.0702 68.0446L65.657 77.0181ZM69.5944 79.7327C70.5588 80.6168 71.378 81.7385 72.0281 83.1731L81.1366 79.0458C79.9742 76.4804 78.3872 74.2271 76.3516 72.3612L69.5944 79.7327ZM72.0281 83.1731C72.5646 84.3571 72.9417 86.0482 72.9417 88.4219H82.9417C82.9417 85.0456 82.4126 81.8617 81.1366 79.0458L72.0281 83.1731ZM72.9417 88.4219V90.4376H82.9417V88.4219H72.9417Z" fill="black"/>
</svg>
